<svg width="108" height="108" viewBox="0 0 108 108" fill="none" xmlns="http://www.w3.org/2000/svg">
<path d="M53.5088 0.358643C23.95 0.358643 0.00878906 24.9215 0.00878906 55.217C0.00878906 79.4598 15.3365 100.018 36.5894 107.264C39.2644 107.78 40.2452 106.084 40.2452 104.626C40.2452 103.323 40.2007 99.8717 40.1784 95.3002C25.2965 98.6099 22.1578 87.94 22.1578 87.94C19.7235 81.6084 16.2059 79.917 16.2059 79.917C11.3597 76.5158 16.5804 76.5843 16.5804 76.5843C21.9527 76.9683 24.7748 82.2347 24.7748 82.2347C29.5452 90.6235 37.2983 88.2006 40.3567 86.7971C40.8382 83.2496 42.2158 80.8313 43.745 79.4598C31.8636 78.0884 19.3758 73.3705 19.3758 52.3507C19.3758 46.362 21.4489 41.4704 24.8818 37.6303C24.28 36.2452 22.4743 30.6679 25.35 23.1111C25.35 23.1111 29.8306 21.6391 40.0625 28.7341C44.3425 27.5135 48.89 26.9101 53.4375 26.8827C57.985 26.9101 62.5325 27.5135 66.8125 28.7341C76.9775 21.6391 81.4581 23.1111 81.4581 23.1111C84.3337 30.6679 82.5281 36.2452 81.9931 37.6303C85.4037 41.4704 87.4768 46.362 87.4768 52.3507C87.4768 73.4254 74.9712 78.0655 63.0675 79.4141C64.94 81.0599 66.6787 84.4245 66.6787 89.5629C66.6787 96.9048 66.6118 102.802 66.6118 104.585C66.6118 106.025 67.5481 107.739 70.29 107.191C91.6944 99.9951 107.009 79.4232 107.009 55.217C107.009 24.9215 83.0542 0.358643 53.5088 0.358643Z" fill="black" fill-opacity="0.75"/>
</svg>
