<svg width="108" height="108" viewBox="0 0 108 108" fill="none" xmlns="http://www.w3.org/2000/svg">
<path opacity="0.75" d="M53.5088 0.996338C38.9746 0.996338 37.1601 1.06321 31.4534 1.31734C25.7557 1.58484 21.8769 2.48096 18.4663 3.80509C14.9487 5.16934 11.9616 7.00171 8.98787 9.97542C6.01416 12.9491 4.17733 15.9318 2.81754 19.4538C1.49341 22.8645 0.592831 26.7432 0.329789 32.441C0.0622891 38.1476 0.00878906 39.9622 0.00878906 54.4963C0.00878906 69.0305 0.0756641 70.845 0.329789 76.5517C0.597289 82.245 1.49341 86.1282 2.81754 89.5388C4.18179 93.052 6.01416 96.0435 8.98787 99.0173C11.9616 101.987 14.9442 103.828 18.4663 105.188C21.8814 106.507 25.7601 107.412 31.4534 107.675C37.1601 107.943 38.9746 107.996 53.5088 107.996C68.043 107.996 69.8575 107.929 75.5642 107.675C81.2575 107.408 85.1407 106.507 88.5513 105.188C92.0645 103.823 95.056 101.987 98.0297 99.0173C100.999 96.0435 102.84 93.0654 104.2 89.5388C105.52 86.1282 106.425 82.245 106.688 76.5517C106.955 70.845 107.009 69.0305 107.009 54.4963C107.009 39.9622 106.942 38.1476 106.688 32.441C106.42 26.7477 105.52 22.86 104.2 19.4538C102.836 15.9362 100.999 12.9491 98.0297 9.97542C95.056 7.00171 92.0778 5.16488 88.5513 3.80509C85.1407 2.48096 81.2575 1.58038 75.5642 1.31734C69.8575 1.04984 68.043 0.996338 53.5088 0.996338ZM53.4085 10.5595C53.4739 10.6031 53.5538 10.6263 53.6324 10.6263C67.7987 10.6268 69.5082 10.6984 75.1317 10.9429C80.348 11.1881 83.179 12.053 85.0604 12.7931C87.566 13.7605 89.3404 14.9197 91.2218 16.7878C93.0899 18.6603 94.249 20.4391 95.2165 22.9447C95.9477 24.8261 96.8215 27.6572 97.0578 32.8734C97.3119 38.5177 97.3699 40.2118 97.3699 54.4963C97.3699 68.7808 97.303 70.4795 97.0399 76.1193C96.768 81.3355 95.8986 84.1665 95.163 86.048C94.1643 88.5535 93.0275 90.3279 91.155 92.2094C89.2869 94.0774 87.4813 95.2366 85.0024 96.204C83.1299 96.9352 80.2543 97.809 75.0381 98.0453C69.3582 98.2995 67.6863 98.3574 53.375 98.3574C39.0593 98.3574 37.3875 98.2905 31.712 98.0275C26.4913 97.7555 23.6157 96.8862 21.7432 96.1505C19.2064 95.1519 17.4632 94.015 15.5951 92.1425C13.7182 90.2745 12.5189 88.4688 11.5826 85.99C10.847 84.1175 9.98208 81.2419 9.71012 76.0256C9.5095 70.4081 9.43816 68.6738 9.43816 54.4295C9.43816 40.1806 9.5095 38.4419 9.71012 32.7575C9.98208 27.5413 10.847 24.6701 11.5826 22.7976C12.5189 20.2563 13.7182 18.5176 15.5951 16.6406C17.4632 14.7726 19.2064 13.5688 21.7432 12.637C23.6157 11.897 26.4289 11.0276 31.6451 10.7601C37.3131 10.56 38.9917 10.493 53.1845 10.4926C53.2631 10.4926 53.3431 10.5159 53.4085 10.5595ZM53.5088 27.0241C38.3282 27.0241 26.0365 39.3291 26.0365 54.4963C26.0365 69.677 38.3415 81.9686 53.5088 81.9686C68.6894 81.9686 80.981 69.6636 80.981 54.4963C80.981 39.3157 68.676 27.0241 53.5088 27.0241ZM53.5088 72.3297C43.6559 72.3297 35.6755 64.3493 35.6755 54.4963C35.6755 44.6434 43.6559 36.663 53.5088 36.663C63.3617 36.663 71.3421 44.6434 71.3421 54.4963C71.3421 64.3493 63.3617 72.3297 53.5088 72.3297ZM88.4889 25.9407C88.4889 29.4851 85.6088 32.3607 82.0689 32.3607C78.5245 32.3607 75.6489 29.4806 75.6489 25.9407C75.6489 22.4008 78.529 19.5252 82.0689 19.5252C85.6043 19.5207 88.4889 22.4008 88.4889 25.9407Z" fill="black"/>
</svg>
