<svg width="108" height="108" viewBox="0 0 108 108" fill="none" xmlns="http://www.w3.org/2000/svg">
<path d="M91.1696 84.2563C91.1689 88.6316 87.6218 92.1782 83.2465 92.1782C78.8707 92.1782 75.3234 88.6309 75.3234 84.2551V67.3497C75.3234 61.429 75.203 53.8097 67.0666 53.8097C58.8053 53.8097 57.5436 60.252 57.5436 66.9128V84.2557C57.5436 88.6312 53.9966 92.1782 49.6211 92.1782C45.2457 92.1782 41.6987 88.6312 41.6987 84.2557V48.7317C41.6987 44.5286 45.1059 41.1213 49.309 41.1213H53.4397C55.3615 41.1213 56.9194 42.6793 56.9194 44.6011V47.9528C56.9194 48.0235 56.9767 48.0808 57.0475 48.0808C57.0949 48.0808 57.138 48.0552 57.1605 48.0134C59.3091 44.021 64.466 39.8329 72.1491 39.8329C88.2035 39.8329 91.1728 50.3991 91.1728 64.1531L91.1696 84.2563ZM23.8029 34.1351C18.7026 34.1351 14.6054 30.0067 14.6054 24.9287C14.6054 19.8551 18.707 15.7311 23.8029 15.7311C28.8854 15.7311 33.0049 19.8551 33.0049 24.9287C33.0049 30.0067 28.881 34.1351 23.8029 34.1351ZM31.7477 84.2334C31.7477 88.6212 28.1907 92.1782 23.8029 92.1782C19.4151 92.1782 15.8582 88.6212 15.8582 84.2334V49.0661C15.8582 44.6783 19.4151 41.1213 23.8029 41.1213C28.1907 41.1213 31.7477 44.6783 31.7477 49.0661V84.2334ZM99.0952 0.996338H7.9045C3.53979 0.996338 0.00878906 4.44709 0.00878906 8.7048V100.288C0.00878906 104.55 3.53979 107.996 7.9045 107.996H99.0819C103.442 107.996 107.009 104.55 107.009 100.288V8.7048C107.009 4.44709 103.442 0.996338 99.0819 0.996338H99.0952Z" fill="black" fill-opacity="0.75"/>
</svg>
